<svg width="337" height="742" viewBox="0 0 337 742" fill="none" xmlns="http://www.w3.org/2000/svg">
<path d="M332.905 735.243C333.853 733.508 334.351 731.56 334.351 729.578L334.633 314.474C334.63 312.045 333.879 309.677 332.483 307.699C331.087 305.721 329.116 304.232 326.844 303.438C322.204 301.803 318.182 298.749 315.338 294.7C312.493 290.651 310.967 285.807 310.97 280.841C310.974 275.875 312.507 271.033 315.357 266.987C318.207 262.942 322.232 259.893 326.874 258.264C329.148 257.474 331.12 255.987 332.519 254.011C333.918 252.035 334.673 249.667 334.679 247.238L334.839 11.9145C334.841 10.3783 334.543 8.85671 333.963 7.43674C333.383 6.01676 332.532 4.72622 331.458 3.63887C330.384 2.55153 329.109 1.68868 327.705 1.09965C326.301 0.510609 324.796 0.206925 323.276 0.205949L14.0355 0.00738983C12.5154 0.0064134 11.0099 0.308164 9.60511 0.895398C8.20035 1.48263 6.92386 2.34384 5.84856 3.4298C4.77327 4.51577 3.92029 5.80521 3.33829 7.22444C2.7563 8.64368 2.45667 10.1649 2.45665 11.7011L2.29691 246.985C2.29989 249.415 3.05167 251.783 4.44765 253.761C5.84362 255.739 7.81447 257.228 10.0865 258.022C14.7266 259.656 18.748 262.71 21.5925 266.759C24.437 270.809 25.9635 275.653 25.9601 280.619C25.9567 285.585 24.4237 290.426 21.5737 294.472C18.7237 298.518 14.6982 301.567 10.0558 303.195C7.78272 303.986 5.80986 305.473 4.4112 307.449C3.01254 309.425 2.25754 311.792 2.25126 314.222L1.96944 729.325C1.96737 730.861 2.26493 732.383 2.84509 733.802C3.42526 735.222 4.27665 736.512 5.35057 737.598C6.4245 738.685 7.69989 739.547 9.1038 740.135C10.5077 740.723 12.0127 741.026 13.5325 741.026L322.773 741.225C324.836 741.23 326.863 740.679 328.644 739.627C330.426 738.575 331.897 737.062 332.905 735.243ZM40.9151 282.634C40.5231 282.637 40.1388 282.523 39.8118 282.304C39.4847 282.086 39.2299 281.773 39.08 281.407C38.9302 281.041 38.8922 280.638 38.9709 280.25C39.0496 279.861 39.2415 279.506 39.5217 279.229C39.8954 278.861 40.3963 278.655 40.9178 278.654L63.8101 278.669C64.2011 278.667 64.5838 278.783 64.9096 279.002C65.2353 279.221 65.4894 279.532 65.6395 279.897C65.7897 280.262 65.8292 280.664 65.753 281.051C65.6767 281.439 65.4881 281.795 65.2113 282.074C64.8357 282.444 64.3317 282.65 63.8074 282.648L40.9151 282.634ZM80.1345 282.659C79.7435 282.66 79.3607 282.544 79.0349 282.326C78.7092 282.107 78.4551 281.796 78.3049 281.431C78.1548 281.066 78.1154 280.664 78.1916 280.277C78.2679 279.889 78.4565 279.533 78.7333 279.254C79.1098 278.886 79.6133 278.68 80.1372 278.68L103.029 278.694C103.421 278.693 103.803 278.808 104.129 279.027C104.455 279.246 104.709 279.557 104.859 279.922C105.009 280.287 105.049 280.689 104.972 281.076C104.896 281.464 104.707 281.82 104.431 282.099C104.055 282.469 103.551 282.675 103.027 282.673L80.1345 282.659ZM119.354 282.684C119.085 282.701 118.815 282.662 118.562 282.57C118.308 282.477 118.076 282.333 117.88 282.147C117.684 281.96 117.527 281.735 117.42 281.485C117.313 281.235 117.258 280.965 117.259 280.693C117.259 280.421 117.314 280.151 117.421 279.901C117.529 279.651 117.685 279.426 117.882 279.24C118.078 279.054 118.311 278.91 118.564 278.818C118.818 278.726 119.088 278.687 119.357 278.705L142.28 278.719C142.669 278.722 143.05 278.84 143.373 279.059C143.696 279.278 143.948 279.589 144.098 279.952C144.248 280.316 144.288 280.715 144.214 281.102C144.139 281.488 143.954 281.844 143.681 282.124C143.306 282.494 142.802 282.7 142.277 282.699L119.354 282.684ZM158.565 282.709C158.296 282.726 158.027 282.687 157.773 282.595C157.52 282.502 157.288 282.358 157.091 282.172C156.895 281.985 156.739 281.76 156.632 281.51C156.525 281.26 156.47 280.99 156.47 280.718C156.47 280.446 156.526 280.176 156.633 279.927C156.74 279.677 156.897 279.452 157.093 279.265C157.29 279.079 157.522 278.935 157.776 278.843C158.03 278.751 158.299 278.713 158.568 278.73L181.476 278.745C181.865 278.748 182.244 278.867 182.566 279.087C182.888 279.307 183.139 279.618 183.288 279.981C183.436 280.344 183.476 280.743 183.401 281.129C183.327 281.514 183.142 281.869 182.869 282.149C182.496 282.517 181.995 282.723 181.473 282.724L158.565 282.709ZM197.785 282.734C197.526 282.735 197.27 282.684 197.031 282.585C196.791 282.485 196.574 282.339 196.391 282.155C196.208 281.97 196.062 281.751 195.963 281.509C195.864 281.268 195.813 281.009 195.813 280.747C195.813 280.218 196.017 279.709 196.384 279.329C196.761 278.963 197.264 278.757 197.787 278.755L220.68 278.77C221.071 278.768 221.453 278.884 221.779 279.103C222.105 279.321 222.359 279.633 222.509 279.998C222.659 280.363 222.699 280.764 222.623 281.152C222.546 281.54 222.358 281.896 222.081 282.175C221.706 282.545 221.201 282.751 220.677 282.749L197.785 282.734ZM237.004 282.759C236.612 282.763 236.228 282.649 235.901 282.43C235.574 282.211 235.319 281.899 235.169 281.533C235.019 281.167 234.981 280.764 235.06 280.375C235.139 279.987 235.33 279.632 235.611 279.355C235.984 278.987 236.485 278.781 237.007 278.78L259.899 278.795C260.29 278.793 260.673 278.909 260.999 279.128C261.324 279.346 261.578 279.658 261.729 280.023C261.879 280.388 261.918 280.79 261.842 281.177C261.766 281.565 261.577 281.921 261.3 282.2C260.925 282.57 260.421 282.776 259.896 282.774L237.004 282.759ZM276.223 282.785C275.964 282.786 275.708 282.735 275.468 282.635C275.228 282.536 275.01 282.39 274.827 282.205C274.643 282.021 274.497 281.802 274.397 281.56C274.297 281.319 274.245 281.059 274.244 280.798C274.242 280.535 274.292 280.274 274.391 280.031C274.491 279.787 274.637 279.566 274.821 279.381C275.006 279.195 275.225 279.049 275.466 278.95C275.708 278.851 275.966 278.802 276.226 278.805L299.118 278.82C299.387 278.803 299.657 278.842 299.91 278.935C300.164 279.027 300.396 279.171 300.592 279.357C300.789 279.544 300.945 279.769 301.052 280.019C301.159 280.269 301.214 280.539 301.214 280.811C301.213 281.083 301.158 281.353 301.051 281.603C300.944 281.853 300.787 282.078 300.59 282.264C300.394 282.45 300.162 282.594 299.908 282.686C299.654 282.778 299.385 282.817 299.116 282.799L276.223 282.785Z" fill="url(#paint0_linear_833_3323)"/>
<path d="M2 636L11.1953 636" stroke="#D8D8DB" stroke-width="3" stroke-linecap="round"/>
<path d="M18.3008 636H27.9141" stroke="#D8D8DB" stroke-width="3" stroke-linecap="round"/>
<path d="M34.6016 636H43.7969" stroke="#D8D8DB" stroke-width="3" stroke-linecap="round"/>
<path d="M67.2031 636H76.3984" stroke="#D8D8DB" stroke-width="3" stroke-linecap="round"/>
<path d="M50.9023 636H60.5156" stroke="#D8D8DB" stroke-width="3" stroke-linecap="round"/>
<path d="M99.8047 636H109" stroke="#D8D8DB" stroke-width="3" stroke-linecap="round"/>
<path d="M83.5039 636H93.1172" stroke="#D8D8DB" stroke-width="3" stroke-linecap="round"/>
<path d="M114 636L123.195 636" stroke="#D8D8DB" stroke-width="3" stroke-linecap="round"/>
<path d="M130.301 636H139.914" stroke="#D8D8DB" stroke-width="3" stroke-linecap="round"/>
<path d="M146.602 636H155.797" stroke="#D8D8DB" stroke-width="3" stroke-linecap="round"/>
<path d="M179.203 636H188.398" stroke="#D8D8DB" stroke-width="3" stroke-linecap="round"/>
<path d="M162.902 636H172.516" stroke="#D8D8DB" stroke-width="3" stroke-linecap="round"/>
<path d="M211.805 636H221" stroke="#D8D8DB" stroke-width="3" stroke-linecap="round"/>
<path d="M195.504 636H205.117" stroke="#D8D8DB" stroke-width="3" stroke-linecap="round"/>
<path d="M228 636L237.195 636" stroke="#D8D8DB" stroke-width="3" stroke-linecap="round"/>
<path d="M244.301 636H253.914" stroke="#D8D8DB" stroke-width="3" stroke-linecap="round"/>
<path d="M260.602 636H269.797" stroke="#D8D8DB" stroke-width="3" stroke-linecap="round"/>
<path d="M293.203 636H302.398" stroke="#D8D8DB" stroke-width="3" stroke-linecap="round"/>
<path d="M276.902 636H286.516" stroke="#D8D8DB" stroke-width="3" stroke-linecap="round"/>
<path d="M325.805 636H335" stroke="#D8D8DB" stroke-width="3" stroke-linecap="round"/>
<path d="M309.504 636H319.117" stroke="#D8D8DB" stroke-width="3" stroke-linecap="round"/>
<defs>
<linearGradient id="paint0_linear_833_3323" x1="282.273" y1="767.162" x2="-173.592" y2="-786.966" gradientUnits="userSpaceOnUse">
<stop stop-color="white"/>
<stop offset="1" stop-color="#CECECE"/>
</linearGradient>
</defs>
</svg>
