<svg width="19" height="19" viewBox="0 0 19 19" fill="none" xmlns="http://www.w3.org/2000/svg">
<path d="M2.74902 5.29492H4.24902M4.24902 5.29492H16.249M4.24902 5.29492V15.7949C4.24902 16.1927 4.40706 16.5743 4.68836 16.8556C4.96967 17.1369 5.3512 17.2949 5.74902 17.2949H13.249C13.6468 17.2949 14.0284 17.1369 14.3097 16.8556C14.591 16.5743 14.749 16.1927 14.749 15.7949V5.29492H4.24902ZM6.49902 5.29492V3.79492C6.49902 3.3971 6.65706 3.01557 6.93836 2.73426C7.21967 2.45296 7.6012 2.29492 7.99902 2.29492H10.999C11.3968 2.29492 11.7784 2.45296 12.0597 2.73426C12.341 3.01557 12.499 3.3971 12.499 3.79492V5.29492M7.99902 9.04492V13.5449M10.999 9.04492V13.5449" stroke="#323336" stroke-linecap="round" stroke-linejoin="round"/>
</svg>
