<svg width="25" height="25" viewBox="0 0 25 25" fill="none" xmlns="http://www.w3.org/2000/svg">
<path fill-rule="evenodd" clip-rule="evenodd" d="M5.26758 6.04004C5.00236 6.04004 4.74801 6.1454 4.56047 6.33293C4.37293 6.52047 4.26758 6.77482 4.26758 7.04004V9.04004C4.26758 9.59232 3.81986 10.04 3.26758 10.04C2.71529 10.04 2.26758 9.59232 2.26758 9.04004V7.04004C2.26758 6.24439 2.58365 5.48133 3.14626 4.91872C3.70887 4.35611 4.47193 4.04004 5.26758 4.04004H19.2676C20.0632 4.04004 20.8263 4.35611 21.3889 4.91872C21.9515 5.48133 22.2676 6.24439 22.2676 7.04004V9.04004C22.2676 9.59232 21.8199 10.04 21.2676 10.04C20.7153 10.04 20.2676 9.59232 20.2676 9.04004V7.04004C20.2676 6.77482 20.1622 6.52047 19.9747 6.33293C19.7871 6.1454 19.5328 6.04004 19.2676 6.04004H5.26758ZM3.26758 14.04C3.81986 14.04 4.26758 14.4878 4.26758 15.04V17.04C4.26758 17.3053 4.37293 17.5596 4.56047 17.7471C4.74801 17.9347 5.00236 18.04 5.26758 18.04H19.2676C19.5328 18.04 19.7871 17.9347 19.9747 17.7471C20.1622 17.5596 20.2676 17.3053 20.2676 17.04V15.04C20.2676 14.4878 20.7153 14.04 21.2676 14.04C21.8199 14.04 22.2676 14.4878 22.2676 15.04V17.04C22.2676 17.8357 21.9515 18.5988 21.3889 19.1614C20.8263 19.724 20.0632 20.04 19.2676 20.04H5.26758C4.47193 20.04 3.70887 19.724 3.14626 19.1614C2.58365 18.5988 2.26758 17.8357 2.26758 17.04V15.04C2.26758 14.4878 2.71529 14.04 3.26758 14.04Z" fill="#323336"/>
<path fill-rule="evenodd" clip-rule="evenodd" d="M21.2676 10.04C20.7371 10.04 20.2284 10.2508 19.8534 10.6258C19.4783 11.0009 19.2676 11.5096 19.2676 12.04C19.2676 12.5705 19.4783 13.0792 19.8534 13.4543C20.2284 13.8293 20.7371 14.04 21.2676 14.04C21.8199 14.04 22.2676 14.4878 22.2676 15.04C22.2676 15.5923 21.8199 16.04 21.2676 16.04C20.2067 16.04 19.1893 15.6186 18.4392 14.8685C17.689 14.1183 17.2676 13.1009 17.2676 12.04C17.2676 10.9792 17.689 9.96176 18.4392 9.21161C19.1893 8.46147 20.2067 8.04004 21.2676 8.04004C21.8199 8.04004 22.2676 8.48775 22.2676 9.04004C22.2676 9.59232 21.8199 10.04 21.2676 10.04Z" fill="#323336"/>
<path fill-rule="evenodd" clip-rule="evenodd" d="M2.26758 9.04004C2.26758 8.48775 2.71529 8.04004 3.26758 8.04004C4.32844 8.04004 5.34586 8.46147 6.09601 9.21161C6.84615 9.96176 7.26758 10.9792 7.26758 12.04C7.26758 13.1009 6.84615 14.1183 6.09601 14.8685C5.34586 15.6186 4.32844 16.04 3.26758 16.04C2.71529 16.04 2.26758 15.5923 2.26758 15.04C2.26758 14.4878 2.71529 14.04 3.26758 14.04C3.79801 14.04 4.30672 13.8293 4.68179 13.4543C5.05686 13.0792 5.26758 12.5705 5.26758 12.04C5.26758 11.5096 5.05686 11.0009 4.68179 10.6258C4.30672 10.2508 3.79801 10.04 3.26758 10.04C2.71529 10.04 2.26758 9.59232 2.26758 9.04004Z" fill="#323336"/>
<path fill-rule="evenodd" clip-rule="evenodd" d="M13.2676 4.04004C13.8199 4.04004 14.2676 4.48775 14.2676 5.04004V7.04004C14.2676 7.59232 13.8199 8.04004 13.2676 8.04004C12.7153 8.04004 12.2676 7.59232 12.2676 7.04004V5.04004C12.2676 4.48775 12.7153 4.04004 13.2676 4.04004Z" fill="#323336"/>
<path fill-rule="evenodd" clip-rule="evenodd" d="M13.2676 16.04C13.8199 16.04 14.2676 16.4878 14.2676 17.04V19.04C14.2676 19.5923 13.8199 20.04 13.2676 20.04C12.7153 20.04 12.2676 19.5923 12.2676 19.04V17.04C12.2676 16.4878 12.7153 16.04 13.2676 16.04Z" fill="#323336"/>
<path fill-rule="evenodd" clip-rule="evenodd" d="M13.2676 10.04C13.8199 10.04 14.2676 10.4878 14.2676 11.04V13.04C14.2676 13.5923 13.8199 14.04 13.2676 14.04C12.7153 14.04 12.2676 13.5923 12.2676 13.04V11.04C12.2676 10.4878 12.7153 10.04 13.2676 10.04Z" fill="#323336"/>
</svg>
