<svg width="25" height="25" viewBox="0 0 25 25" fill="none" xmlns="http://www.w3.org/2000/svg">
<path fill-rule="evenodd" clip-rule="evenodd" d="M17.2676 16.702C17.0024 16.702 16.748 16.8074 16.5605 16.9949C16.3729 17.1825 16.2676 17.4368 16.2676 17.702V21.702C16.2676 22.2543 15.8199 22.702 15.2676 22.702C14.7153 22.702 14.2676 22.2543 14.2676 21.702V17.702C14.2676 16.9064 14.5836 16.1433 15.1463 15.5807C15.7089 15.0181 16.4719 14.702 17.2676 14.702H21.2676C21.8199 14.702 22.2676 15.1497 22.2676 15.702C22.2676 16.2543 21.8199 16.702 21.2676 16.702H17.2676Z" fill="#323336"/>
<path fill-rule="evenodd" clip-rule="evenodd" d="M7.26758 3.70203C7.81986 3.70203 8.26758 4.14974 8.26758 4.70203V6.51347C8.4208 6.86113 8.67042 7.15902 8.9883 7.37094C9.34902 7.61142 9.77812 7.72818 10.211 7.70363L10.2676 8.70203V7.70203C11.0632 7.70203 11.8263 8.0181 12.3889 8.58071C12.9515 9.14332 13.2676 9.90638 13.2676 10.702C13.2676 10.9672 13.3729 11.2216 13.5605 11.4091C13.748 11.5967 14.0024 11.702 14.2676 11.702C14.5328 11.702 14.7871 11.5967 14.9747 11.4091C15.1622 11.2216 15.2676 10.9672 15.2676 10.702C15.2676 9.90638 15.5836 9.14332 16.1463 8.58071C16.7089 8.0181 17.4719 7.70203 18.2676 7.70203H21.2676C21.8199 7.70203 22.2676 8.14974 22.2676 8.70203C22.2676 9.25431 21.8199 9.70203 21.2676 9.70203H18.2676C18.0024 9.70203 17.748 9.80738 17.5605 9.99492C17.3729 10.1825 17.2676 10.4368 17.2676 10.702C17.2676 11.4977 16.9515 12.2607 16.3889 12.8233C15.8263 13.386 15.0632 13.702 14.2676 13.702C13.4719 13.702 12.7089 13.386 12.1463 12.8233C11.5836 12.2607 11.2676 11.4977 11.2676 10.702C11.2676 10.4368 11.1622 10.1825 10.9747 9.99492C10.7922 9.81246 10.5465 9.70779 10.2891 9.70226C9.43536 9.74316 8.59059 9.5095 7.8789 9.03504C7.15746 8.55408 6.61183 7.85172 6.3242 7.03376C6.28672 6.92717 6.26758 6.81501 6.26758 6.70203V4.70203C6.26758 4.14974 6.71529 3.70203 7.26758 3.70203Z" fill="#323336"/>
<path fill-rule="evenodd" clip-rule="evenodd" d="M2.26758 11.702C2.26758 11.1497 2.71529 10.702 3.26758 10.702H5.26758C6.06323 10.702 6.82629 11.0181 7.3889 11.5807C7.95151 12.1433 8.26758 12.9064 8.26758 13.702V14.702C8.26758 14.9672 8.37293 15.2216 8.56047 15.4091C8.74801 15.5967 9.00236 15.702 9.26758 15.702C10.0632 15.702 10.8263 16.0181 11.3889 16.5807C11.9515 17.1433 12.2676 17.9064 12.2676 18.702V22.702C12.2676 23.2543 11.8199 23.702 11.2676 23.702C10.7153 23.702 10.2676 23.2543 10.2676 22.702V18.702C10.2676 18.4368 10.1622 18.1825 9.97468 17.9949C9.78715 17.8074 9.53279 17.702 9.26758 17.702C8.47193 17.702 7.70887 17.386 7.14626 16.8233C6.58365 16.2607 6.26758 15.4977 6.26758 14.702V13.702C6.26758 13.4368 6.16222 13.1825 5.97468 12.9949C5.78715 12.8074 5.53279 12.702 5.26758 12.702H3.26758C2.71529 12.702 2.26758 12.2543 2.26758 11.702Z" fill="#323336"/>
<path fill-rule="evenodd" clip-rule="evenodd" d="M12.2676 3.70203C7.29702 3.70203 3.26758 7.73146 3.26758 12.702C3.26758 17.6726 7.29702 21.702 12.2676 21.702C17.2381 21.702 21.2676 17.6726 21.2676 12.702C21.2676 7.73146 17.2381 3.70203 12.2676 3.70203ZM1.26758 12.702C1.26758 6.62689 6.19245 1.70203 12.2676 1.70203C18.3427 1.70203 23.2676 6.62689 23.2676 12.702C23.2676 18.7772 18.3427 23.702 12.2676 23.702C6.19245 23.702 1.26758 18.7772 1.26758 12.702Z" fill="#323336"/>
</svg>
