<svg width="25" height="25" viewBox="0 0 25 25" fill="none" xmlns="http://www.w3.org/2000/svg">
<path fill-rule="evenodd" clip-rule="evenodd" d="M12.2676 3.93152C7.29702 3.93152 3.26758 7.96096 3.26758 12.9315C3.26758 17.9021 7.29702 21.9315 12.2676 21.9315C17.2381 21.9315 21.2676 17.9021 21.2676 12.9315C21.2676 7.96096 17.2381 3.93152 12.2676 3.93152ZM1.26758 12.9315C1.26758 6.85639 6.19245 1.93152 12.2676 1.93152C18.3427 1.93152 23.2676 6.85639 23.2676 12.9315C23.2676 19.0067 18.3427 23.9315 12.2676 23.9315C6.19245 23.9315 1.26758 19.0067 1.26758 12.9315Z" fill="#323336"/>
<path fill-rule="evenodd" clip-rule="evenodd" d="M12.2676 5.93152C12.8199 5.93152 13.2676 6.37923 13.2676 6.93152V11.9315H16.7676C17.3199 11.9315 17.7676 12.3792 17.7676 12.9315C17.7676 13.4838 17.3199 13.9315 16.7676 13.9315H12.2676C11.7153 13.9315 11.2676 13.4838 11.2676 12.9315V6.93152C11.2676 6.37923 11.7153 5.93152 12.2676 5.93152Z" fill="#323336"/>
</svg>
