<svg width="25" height="25" viewBox="0 0 25 25" fill="none" xmlns="http://www.w3.org/2000/svg">
<path fill-rule="evenodd" clip-rule="evenodd" d="M11.6536 1.84468C12.0147 1.56382 12.5204 1.56382 12.8815 1.84468L21.8815 8.84468C22.1251 9.03414 22.2676 9.32544 22.2676 9.63403V20.634C22.2676 21.4297 21.9515 22.1927 21.3889 22.7554C20.8263 23.318 20.0632 23.634 19.2676 23.634H5.26758C4.47193 23.634 3.70887 23.318 3.14626 22.7554C2.58365 22.1927 2.26758 21.4297 2.26758 20.634V9.63403C2.26758 9.32544 2.41005 9.03414 2.65364 8.84468L11.6536 1.84468ZM4.26758 10.1231V20.634C4.26758 20.8993 4.37293 21.1536 4.56047 21.3411C4.74801 21.5287 5.00236 21.634 5.26758 21.634H19.2676C19.5328 21.634 19.7871 21.5287 19.9747 21.3411C20.1622 21.1536 20.2676 20.8992 20.2676 20.634V10.1231L12.2676 3.90089L4.26758 10.1231Z" fill="#323336"/>
<path fill-rule="evenodd" clip-rule="evenodd" d="M8.26758 12.634C8.26758 12.0817 8.71529 11.634 9.26758 11.634H15.2676C15.8199 11.634 16.2676 12.0817 16.2676 12.634V22.634C16.2676 23.1863 15.8199 23.634 15.2676 23.634C14.7153 23.634 14.2676 23.1863 14.2676 22.634V13.634H10.2676V22.634C10.2676 23.1863 9.81986 23.634 9.26758 23.634C8.71529 23.634 8.26758 23.1863 8.26758 22.634V12.634Z" fill="#323336"/>
</svg>
