<svg width="25" height="25" viewBox="0 0 25 25" fill="none" xmlns="http://www.w3.org/2000/svg">
<path fill-rule="evenodd" clip-rule="evenodd" d="M6.56047 6.3593C6.951 5.96878 7.58416 5.96878 7.97468 6.3593L17.9747 16.3593C18.3652 16.7498 18.3652 17.383 17.9747 17.7735C17.5842 18.164 16.951 18.164 16.5605 17.7735L6.56047 7.77351C6.16995 7.38299 6.16995 6.74982 6.56047 6.3593Z" fill="#323336"/>
<path fill-rule="evenodd" clip-rule="evenodd" d="M17.2676 6.06641C17.8199 6.06641 18.2676 6.51412 18.2676 7.06641V17.0664C18.2676 17.6187 17.8199 18.0664 17.2676 18.0664H7.26758C6.71529 18.0664 6.26758 17.6187 6.26758 17.0664C6.26758 16.5141 6.71529 16.0664 7.26758 16.0664H16.2676V7.06641C16.2676 6.51412 16.7153 6.06641 17.2676 6.06641Z" fill="#323336"/>
</svg>
