<svg width="40" height="40" viewBox="0 0 40 40" fill="none" xmlns="http://www.w3.org/2000/svg">
<ellipse cx="20.0843" cy="20" rx="19.5741" ry="20" fill="#F5F7F9"/>
<rect x="9.87231" y="10" width="19.5741" height="20" rx="9.78704" fill="#F5F7F9"/>
<path fill-rule="evenodd" clip-rule="evenodd" d="M15.0047 15.2441C15.3233 14.9186 15.8397 14.9186 16.1582 15.2441L24.314 23.5774C24.6325 23.9028 24.6325 24.4305 24.314 24.7559C23.9955 25.0814 23.4791 25.0814 23.1606 24.7559L15.0047 16.4226C14.6862 16.0972 14.6862 15.5695 15.0047 15.2441Z" fill="#323336"/>
<path fill-rule="evenodd" clip-rule="evenodd" d="M23.7373 15C24.1878 15 24.5529 15.3731 24.5529 15.8333V24.1667C24.5529 24.6269 24.1878 25 23.7373 25H15.5815C15.131 25 14.7659 24.6269 14.7659 24.1667C14.7659 23.7064 15.131 23.3333 15.5815 23.3333H22.9217V15.8333C22.9217 15.3731 23.2869 15 23.7373 15Z" fill="#323336"/>
</svg>
