<svg width="25" height="25" viewBox="0 0 25 25" fill="none" xmlns="http://www.w3.org/2000/svg">
<path fill-rule="evenodd" clip-rule="evenodd" d="M7.26758 4.26953C7.00236 4.26953 6.74801 4.37489 6.56047 4.56242C6.37293 4.74996 6.26758 5.00431 6.26758 5.26953V19.5464L11.7714 16.4013C12.0789 16.2256 12.4563 16.2256 12.7637 16.4013L18.2676 19.5464V5.26953C18.2676 5.00432 18.1622 4.74996 17.9747 4.56242C17.7871 4.37489 17.5328 4.26953 17.2676 4.26953H7.26758ZM5.14626 3.14821C5.70887 2.5856 6.47193 2.26953 7.26758 2.26953H17.2676C18.0632 2.26953 18.8263 2.5856 19.3889 3.14821C19.9515 3.71082 20.2676 4.47388 20.2676 5.26953V21.2695C20.2676 21.626 20.0778 21.9555 19.7695 22.1344C19.4612 22.3134 19.0809 22.3146 18.7714 22.1378L12.2676 18.4213L5.76372 22.1378C5.45421 22.3146 5.07397 22.3134 4.76565 22.1344C4.45734 21.9555 4.26758 21.626 4.26758 21.2695V5.26953C4.26758 4.47388 4.58365 3.71082 5.14626 3.14821Z" fill="#323336"/>
<path fill-rule="evenodd" clip-rule="evenodd" d="M8.26758 10.2695C8.26758 9.71725 8.71529 9.26953 9.26758 9.26953H15.2676C15.8199 9.26953 16.2676 9.71725 16.2676 10.2695C16.2676 10.8218 15.8199 11.2695 15.2676 11.2695H9.26758C8.71529 11.2695 8.26758 10.8218 8.26758 10.2695Z" fill="#323336"/>
</svg>
