<svg width="25" height="25" viewBox="0 0 25 25" fill="none" xmlns="http://www.w3.org/2000/svg">
<path fill-rule="evenodd" clip-rule="evenodd" d="M6.56047 6.79192C6.951 6.40139 7.58416 6.40139 7.97468 6.79192L17.9747 16.7919C18.3652 17.1824 18.3652 17.8156 17.9747 18.2061C17.5842 18.5967 16.951 18.5967 16.5605 18.2061L6.56047 8.20613C6.16995 7.81561 6.16995 7.18244 6.56047 6.79192Z" fill="#323336"/>
<path fill-rule="evenodd" clip-rule="evenodd" d="M6.26758 7.49902C6.26758 6.94674 6.71529 6.49902 7.26758 6.49902H17.2676C17.8199 6.49902 18.2676 6.94674 18.2676 7.49902C18.2676 8.05131 17.8199 8.49902 17.2676 8.49902H8.26758V17.499C8.26758 18.0513 7.81986 18.499 7.26758 18.499C6.71529 18.499 6.26758 18.0513 6.26758 17.499V7.49902Z" fill="#323336"/>
</svg>
