<svg width="41" height="40" viewBox="0 0 41 40" fill="none" xmlns="http://www.w3.org/2000/svg">
<ellipse cx="20.6087" cy="20" rx="19.6309" ry="20" fill="#0177FB"/>
<path fill-rule="evenodd" clip-rule="evenodd" d="M14.9591 15.2441C15.2785 14.9186 15.7964 14.9186 16.1158 15.2441L24.2954 23.5774C24.6148 23.9028 24.6148 24.4305 24.2954 24.7559C23.9759 25.0814 23.458 25.0814 23.1386 24.7559L14.9591 16.4226C14.6396 16.0972 14.6396 15.5695 14.9591 15.2441Z" fill="white"/>
<path fill-rule="evenodd" clip-rule="evenodd" d="M14.7195 15.8333C14.7195 15.3731 15.0857 15 15.5374 15H23.717C24.1687 15 24.5349 15.3731 24.5349 15.8333C24.5349 16.2936 24.1687 16.6667 23.717 16.6667H16.3554V24.1667C16.3554 24.6269 15.9892 25 15.5374 25C15.0857 25 14.7195 24.6269 14.7195 24.1667V15.8333Z" fill="white"/>
</svg>
