<svg width="39" height="40" viewBox="0 0 39 40" fill="none" xmlns="http://www.w3.org/2000/svg">
<ellipse cx="19.2879" cy="20" rx="19.2879" ry="20" fill="#F5F7F9"/>
<path fill-rule="evenodd" clip-rule="evenodd" d="M14.7012 15.2441C15.0151 14.9186 15.5239 14.9186 15.8378 15.2441L23.8744 23.5774C24.1882 23.9028 24.1882 24.4305 23.8744 24.7559C23.5605 25.0814 23.0517 25.0814 22.7378 24.7559L14.7012 16.4226C14.3874 16.0972 14.3874 15.5695 14.7012 15.2441Z" fill="#323336"/>
<path fill-rule="evenodd" clip-rule="evenodd" d="M14.4658 15.8333C14.4658 15.3731 14.8256 15 15.2695 15H23.3061C23.7499 15 24.1098 15.3731 24.1098 15.8333C24.1098 16.2936 23.7499 16.6667 23.3061 16.6667H16.0731V24.1667C16.0731 24.6269 15.7133 25 15.2695 25C14.8256 25 14.4658 24.6269 14.4658 24.1667V15.8333Z" fill="#323336"/>
</svg>
