<svg width="52" height="52" viewBox="0 0 52 52" fill="none" xmlns="http://www.w3.org/2000/svg">
<circle cx="26" cy="26" r="26" fill="#0177FB"/>
<path fill-rule="evenodd" clip-rule="evenodd" d="M13.9998 11.3333C14.7362 11.3333 15.3332 11.9303 15.3332 12.6667V19.3333H21.9998C22.7362 19.3333 23.3332 19.9303 23.3332 20.6667C23.3332 21.4031 22.7362 22 21.9998 22H13.9998C13.2635 22 12.6665 21.4031 12.6665 20.6667V12.6667C12.6665 11.9303 13.2635 11.3333 13.9998 11.3333Z" fill="white"/>
<path fill-rule="evenodd" clip-rule="evenodd" d="M23.9438 12.8371C26.4859 12.4403 29.0884 12.7875 31.4376 13.8368C33.7868 14.8861 35.7822 16.5927 37.1832 18.7507C38.5841 20.9087 39.3308 23.4259 39.3332 25.9988C39.3339 26.7352 38.7374 27.3327 38.0011 27.3333C37.2647 27.334 36.6672 26.7376 36.6665 26.0012C36.6646 23.9429 36.0673 21.9291 34.9465 20.2027C33.8257 18.4763 32.2294 17.1111 30.3501 16.2716C28.4707 15.4322 26.3887 15.1544 24.355 15.4718C22.322 15.7891 20.4241 16.6877 18.8902 18.0592C18.8897 18.0596 18.8892 18.06 18.8887 18.0605L14.8918 21.6577C14.3445 22.1503 13.5014 22.106 13.0088 21.5586C12.5162 21.0113 12.5605 20.1682 13.1079 19.6756L17.111 16.0728C19.0287 14.3576 21.4017 13.2338 23.9438 12.8371Z" fill="white"/>
<path fill-rule="evenodd" clip-rule="evenodd" d="M28.6665 31.3333C28.6665 30.597 29.2635 30 29.9998 30H37.9998C38.7362 30 39.3332 30.597 39.3332 31.3333V39.3333C39.3332 40.0697 38.7362 40.6667 37.9998 40.6667C37.2635 40.6667 36.6665 40.0697 36.6665 39.3333V32.6667H29.9998C29.2635 32.6667 28.6665 32.0697 28.6665 31.3333Z" fill="white"/>
<path fill-rule="evenodd" clip-rule="evenodd" d="M13.9986 24.6667C14.735 24.666 15.3325 25.2624 15.3332 25.9988C15.335 28.0571 15.9324 30.0709 17.0532 31.7973C18.174 33.5236 19.7703 34.8889 21.6496 35.7283C23.529 36.5678 25.611 36.8455 27.6447 36.5281C29.6777 36.2108 31.5756 35.3123 33.1095 33.9408C33.11 33.9404 33.1105 33.94 33.1109 33.9395L37.1079 30.3423C37.6552 29.8497 38.4983 29.894 38.9909 30.4414C39.4835 30.9887 39.4391 31.8318 38.8918 32.3244L34.8918 35.9244L34.8887 35.9271C32.971 37.6424 30.598 38.7661 28.0559 39.1629C25.5138 39.5597 22.9112 39.2124 20.5621 38.1631C18.2129 37.1139 16.2175 35.4073 14.8165 33.2493C13.4155 31.0913 12.6688 28.5741 12.6665 26.0012C12.6658 25.2648 13.2622 24.6673 13.9986 24.6667Z" fill="white"/>
</svg>
